<?xml version="1.0" encoding="utf-8"?>
<!-- Generator: Adobe Illustrator 24.3.0, SVG Export Plug-In . SVG Version: 6.00 Build 0)  -->
<svg version="1.1" id="Layer_1" xmlns="http://www.w3.org/2000/svg" xmlns:xlink="http://www.w3.org/1999/xlink" x="0px" y="0px"
	 viewBox="0 0 1920 1080" style="enable-background:new 0 0 1920 1080;" xml:space="preserve">
<style type="text/css">
	.Drop_x0020_Shadow{fill:none;}
	.Outer_x0020_Glow_x0020_5_x0020_pt{fill:none;}
	.Blue_x0020_Neon{fill:none;stroke:#8AACDA;stroke-width:7;stroke-linecap:round;stroke-linejoin:round;}
	.Chrome_x0020_Highlight{fill:url(#SVGID_1_);stroke:#FFFFFF;stroke-width:0.3629;stroke-miterlimit:1;}
	.Jive_GS{fill:#FFDD00;}
	.Alyssa_GS{fill:#A6D0E4;}
	.st0{fill:none;}
	.st1{font-family:'PTSans-CaptionBold';}
	.st2{font-size:60px;}
	.st3{fill:#B0C0D9;}
	.st4{font-family:'Atocha';}
	.st5{font-size:200px;}
</style>
<linearGradient id="SVGID_1_" gradientUnits="userSpaceOnUse" x1="0" y1="0" x2="6.123234e-17" y2="-1">
	<stop  offset="0" style="stop-color:#656565"/>
	<stop  offset="0.618" style="stop-color:#1B1B1B"/>
	<stop  offset="0.6292" style="stop-color:#545454"/>
	<stop  offset="0.9831" style="stop-color:#3E3E3E"/>
</linearGradient>
<path id="SVGID_x5F_2_x5F_" class="st0" d="M591.78,878.17c0,111.29-90.21,201.5-201.5,201.5s-201.5-90.21-201.5-201.5
	s90.21-201.5,201.5-201.5S591.78,766.89,591.78,878.17z"/>
<text><textPath  xlink:href="#SVGID_x5F_2_x5F_" startOffset="82.7363%">
</textPath>
</text>
<path id="SVGID_x5F_3_x5F_" class="st0" d="M560,677.5C560,788.23,472.92,878,365.5,878S171,788.23,171,677.5S258.08,477,365.5,477
	S560,566.77,560,677.5z"/>
<text class="st1 st2"><textPath  xlink:href="#SVGID_x5F_3_x5F_" startOffset="23.3237%">
 </textPath>
</text>
<path id="SVGID_x5F_4_x5F_" class="st0" d="M566,235c0,78.98-66.04,143-147.5,143S271,313.98,271,235S337.04,92,418.5,92
	S566,156.02,566,235z"/>
<text><textPath  xlink:href="#SVGID_x5F_4_x5F_" startOffset="82.518%">
<tspan  style="font-family:'BodoniSvtyTwoSCITCTT-Book'; font-size:51.869px;">human rights</tspan><tspan  style="font-family:'Herculanum'; font-size:38.6398px;"> </tspan></textPath>
</text>
<circle class="st3" cx="418.5" cy="248.5" r="147.5"/>
<path id="SVGID_x5F_5_x5F_" class="st0" d="M831.38,404.31c0,74.73-66.04,135.31-147.5,135.31s-147.5-60.58-147.5-135.31
	S602.42,269,683.88,269S831.38,329.58,831.38,404.31z"/>
<text><textPath  xlink:href="#SVGID_x5F_5_x5F_" startOffset="79.5837%">
</textPath>
</text>
<text transform="matrix(1 0 0 1 319.9463 299.8184)" class="st4 st5">M</text>
<rect x="876.55" y="416.91" class="st0" width="50.91" height="0"/>
</svg>
