<svg id="Layer_1" data-name="Layer 1" xmlns="http://www.w3.org/2000/svg" viewBox="0 0 1294.64 907.88"><defs><style>.cls-1{font-size:60px;font-family:PTSans-CaptionBold, PT Sans Caption;font-weight:700;}.cls-2{font-size:72px;font-family:BodoniSvtyTwoSCITCTT-Book, "Bodoni 72 Smallcaps";}.cls-3{font-size:53.64px;font-family:Herculanum;}.cls-4{fill:#b0c0d9;}.cls-5{font-size:200px;font-family:Atocha;}</style></defs><text x="-171" y="-171.79"/><text x="-171" y="-171.79"/><text x="-171" y="-171.79"/><text x="-171" y="-171.79"/><text class="cls-1" transform="matrix(-0.9, 0.44, -0.44, -0.9, 284.41, 683.75)"> </text><text class="cls-2" transform="translate(382.66 146.88) rotate(-42.16)">h</text><text class="cls-2" transform="matrix(0.84, -0.54, 0.54, 0.84, 408.47, 123.42)">u</text><text class="cls-2" transform="matrix(0.92, -0.38, 0.38, 0.92, 435.77, 105.56)">m</text><text class="cls-2" transform="translate(470.67 91.41) rotate(-12.58)">a</text><text class="cls-2" transform="translate(499.61 84.71) rotate(-3.65)">n</text><text class="cls-2" transform="translate(532.41 83.12) rotate(2.73)"> </text><text class="cls-2" transform="matrix(0.99, 0.15, -0.15, 0.99, 544.57, 83.15)">r</text><text class="cls-2" transform="translate(574.23 88.07) rotate(15.47)">i</text><text class="cls-2" transform="translate(589.66 91.74) rotate(22.43)">g</text><text class="cls-2" transform="matrix(0.85, 0.53, -0.53, 0.85, 619.07, 103.56)">h</text><text class="cls-2" transform="matrix(0.75, 0.66, -0.66, 0.75, 648.65, 122.2)">t</text><text class="cls-2" transform="translate(670.41 141.29) rotate(48.83)">s</text><text class="cls-3" transform="translate(686.62 160.16) rotate(54.38)"> </text><circle class="cls-4" cx="529.5" cy="244.71" r="147.5"/><text x="-171" y="-171.79"/><text class="cls-5" transform="translate(440.95 318.03)">M</text><text x="-171" y="-171.79"/></svg>